<svg xmlns="http://www.w3.org/2000/svg" viewBox="0 0 100 100" role="img" aria-label="Gemini"><path d="M10.39 94V87.43Q13.89 86.06 17.49 85Q21.09 83.94 24.8 83.2V16.8Q20.35 15.85 16.75 14.79Q13.15 13.73 10.39 12.57V6Q27.55 12.99 50 12.99Q72.45 12.99 89.61 6V12.57Q83.46 15.21 75.2 16.91V83.2Q78.91 83.94 82.46 85Q86 86.06 89.61 87.43V94Q79.97 90.29 70.49 88.65Q61.01 87.01 50 87.01Q39.3 87.01 29.72 88.65Q20.14 90.29 10.39 94ZM32.21 81.82Q36.45 81.08 40.89 80.76Q45.34 80.45 50 80.45Q54.66 80.45 59.11 80.76Q63.55 81.08 67.79 81.82V18.28Q59.11 19.55 50 19.55Q41 19.55 32.21 18.28Z" fill="#111111"/></svg>